# xmcd
#
# Track frame offsets: 
#        150
#        1305
#        18857
#        47045
#        57437
#        77690
#        97485
#        113815
#        137805
#        161597
#
# Disc length: 2527 seconds
#
# Revision: 0
# Processed by: cddbd v1.5.1PL0 Copyright (c) Steve Scherf et al.
# Submitted via: ExactAudioCopy v0.95a5
#
DISCID=7e09dd0a
DTITLE=Various Artist - ann arbor Blues and Jazz festival 1972
DYEAR=1973
DGENRE=Blues
TTITLE0=Michael Turner/Introduction To TheFestival
TTITLE1=Hound Dog Taylor and The Houserockers/Kitchen Sink Boogie
TTITLE2=Koko Taylor/Wang Dang Doodle
TTITLE3=Bobby 'Blue' Bland/Ain't That Loving You
TTITLE4=Dr.John/I Walk On Guided Splinters
TTITLE5=Junior Walker and The All Stars/(I'm A)Roadrunner-These Things W
TTITLE5=ill Keep Me Loving You
TTITLE6=Bonnie Raitt/Write Me A Few Of Your Lines-Kokomo-Drop Down Mam
TTITLE6=a
TTITLE7=Howlin' Wolf/Highway 49
TTITLE8=Muddy Waters/Honey Bee
TTITLE9=CJQ/Form Kinetic
EXTD=
EXTT0=
EXTT1=
EXTT2=
EXTT3=
EXTT4=
EXTT5=
EXTT6=
EXTT7=
EXTT8=
EXTT9=
PLAYORDER=
